/* XPM */
static char *_910_2b30a137d2c71817542f518d2e2ecd2a030feca37bd0426495dde63f28f473aa[] = {
/* columns rows colors chars-per-pixel */
"64 64 142 2 ",
"   c #242B1C",
".  c #333E2D",
"X  c #34422E",
"o  c #364332",
"O  c #3B4734",
"+  c #3D4A36",
"@  c #3E4B39",
"#  c #404E37",
"$  c #424E3B",
"%  c #484F3F",
"&  c #44523D",
"*  c #454D40",
"=  c #465341",
"-  c #495543",
";  c #465842",
":  c #4C5945",
">  c #4E5B49",
",  c #505E47",
"<  c #525D4B",
"1  c #575F50",
"2  c #4F614B",
"3  c #54614D",
"4  c #58654F",
"5  c #576351",
"6  c #5A6553",
"7  c #5C6A55",
"8  c #5F6759",
"9  c #5E6B59",
"0  c #5F715B",
"q  c #606C56",
"w  c #626D5B",
"e  c #686F5F",
"r  c #64725D",
"t  c #68745F",
"y  c #656E61",
"u  c #696F61",
"i  c #667261",
"p  c #6A7563",
"a  c #6C7965",
"s  c #6E7669",
"d  c #6E7B69",
"f  c #717C67",
"g  c #727D6B",
"h  c #787F6F",
"j  c #767E71",
"k  c #7A7F71",
"l  c #6F816D",
"z  c #75826D",
"x  c #79846F",
"c  c #7A886F",
"v  c #768371",
"b  c #7A8573",
"n  c #778973",
"m  c #7C8A75",
"M  c #7E8678",
"N  c #7E8B79",
"B  c #7F9179",
"V  c #808476",
"C  c #818B76",
"Z  c #818779",
"A  c #828D7B",
"S  c #888D7F",
"D  c #84927D",
"F  c #88937E",
"G  c #878F80",
"H  c #898E80",
"J  c #869481",
"K  c #8A9583",
"L  c #879982",
"P  c #8C9A85",
"I  c #8E9689",
"U  c #8E9C89",
"Y  c #919587",
"T  c #909D87",
"R  c #929688",
"E  c #929D8B",
"W  c #999E8F",
"Q  c #979F90",
"!  c #999F91",
"~  c #8FA18A",
"^  c #92A087",
"/  c #94A28D",
"(  c #98A58E",
")  c #96A491",
"_  c #9AA593",
"`  c #96A992",
"'  c #9CAB95",
"]  c #9FA798",
"[  c #9EAC99",
"{  c #9EB19A",
"}  c #A0A797",
"|  c #A0AD97",
" . c #A2AD9B",
".. c #A0B096",
"X. c #A4B39D",
"o. c #A8B39E",
"O. c #A6AEA1",
"+. c #A9AEA0",
"@. c #A6B4A1",
"#. c #AAB5A2",
"$. c #A6B8A2",
"%. c #ACBAA5",
"&. c #AFB7A8",
"*. c #AEBDA9",
"=. c #B0BCA7",
"-. c #B2BDAB",
";. c #B7BFB0",
":. c #AEC1AA",
">. c #B4C2AD",
",. c #B8C6AF",
"<. c #BAC8AF",
"1. c #B6C4B0",
"2. c #BAC5B2",
"3. c #B7CAB3",
"4. c #BCCAB5",
"5. c #BECCB9",
"6. c #C0CCB7",
"7. c #C2C6B8",
"8. c #C2CDBA",
"9. c #C8CFBF",
"0. c #C2D0B7",
"q. c #C4D2BC",
"w. c #C8D6BE",
"e. c #CAD8BF",
"r. c #C6D3C1",
"t. c #CAD5C3",
"y. c #C6D8C0",
"u. c #CDDAC4",
"i. c #CEDBC9",
"p. c #D1DFC6",
"a. c #D2DDCB",
"s. c #D5E2CC",
"d. c #D9E7CE",
"f. c #DAE8CF",
"g. c #D7E2D1",
"h. c #DBE5D4",
"j. c #DDEAD4",
"k. c #DEECD9",
"l. c #E0EED7",
"z. c #E0EBDA",
"x. c #E5F0DF",
"c. c #E9F6E2",
/* pixels */
"i 6 9 v v M v [ ] 1 y j Z j M ;.} ! ;.! } } S h h h K S W } o.o.-.} o.( W S h x g o.S Y h h H e h 7.} b z.I 1.@.U M s 9 J [ G K ",
"9 d p 9 j M *.I 1 8 n j G I O.r.! Y W ! p V h Y o.7.w.;.,.=.| | } =.,.=.=.6.8.7.&.S s V e H S * 6 Y m -.x.@.M @.) I s 9 N -.G i ",
"N l i I n *.M - s J M I ;.&.! ! } K K M V -.t.;. .S f 6 4 2 7 t 4 7 4 t f t h S &.2.t.O.g : V h v i ;.} &.r.y &.@.#.U 9 j #.@.j ",
"M d N v O.v * j I y ) &.&.&.M Q K s H 2.u.} h q t 4 4 f t r l a g V x f f g t a i 5 m &.a.-.q u N ] Q W 5.I s J O.] ] s &.2.@.N ",
"i A d ) j - n J i O.i.I ] Q Q u b 5.t.) w w w i 6 t l f r t c t t t x l p t 7 r 5 v i 5 a ] g.-.M b g O.#._ ) [ i N J g G _ p ] ",
"A g O.n > G I s U &.O.] M j s ! a.K 1 1 w 9 6 N D #.z 9 a r 2 a l r z x f w A ' A i 5 w b w 6 O.t.U y Q I ) Q M d v j s - = 5.G ",
"v O.j 5 s I I ) 2.Q U Q v j t.;.9 1 9 6 8 J P U 4.P 9 a 4 t D m z C n r r r @./ 0 g N N - s a 5 s 2.5.j 9 I J y O.J v y s 2.J j ",
"~ J = j N ) j @._ ] g s M h.I * i 6 9 J d r.B & X.=.i r D L D X.^ ^ N c n 9 %.n a N t.9 &.v p z i 6 ] r.M J j n [ y &.N I j v d ",
"I 1 s j O.) ;.J I M n _ i.s = 9 < d m / < m y.p D l c F ( ` F $.$.~ D F z c l l q ..F q s.T _ i i s 9 N t.I 6 j ] = [ O.I I I ) ",
"1 s j [ j O.$.U s g O.8.8 < y 1 r a.P < b i ( a 4 B c ^ $.:.:.:.e.{ $.{ ^ C l l q 7 c ,.#.P p ] #.5 i i y g.K < ) G I r.1.) n y ",
"1 s Q O.M ) I ) d O.-.y 8 5 @ J S < e.E a 9 9 p l ( ` ....%.w.:.{ 4.<.` X...c c a p t l K E p s.j U y a s p 4.A - j y j s 8 1 j ",
"G I &.J O.I s M [ r.i 9 2 y 1.) E q f f r 6 c z F ^ ..:.<.<.l.=.D p.4.o.%...F c a c l t a 7 3.( G r.K v g p j t.d 6 9 > 2 y ) g.",
"y 2.E j O.O.M M g.y 2 6 y j [ ) 9.A 1 q a r a D ` ^ $.4.0.p.p...$.$.e.e.$.....C c t m f x a t x j : P -.q z w c s.b 3 A O.5.i.h.",
"1 d j Z G A 8 i.n 8 y 5 [ - o ] , q p 4 t c a D X.,.<.0.e.f.( F ^ ^ d.<.e.=.( o.D m r x f l r e i U 8.@.| e z 4 F 6.z } ` ' @.t.",
"j ;.I _ G y 5.&.5 y 8 I [ { s 6 p , f f t z z ( ` ,.0.s.l.w.c F ^ l 0.d.$...=.F c C F x f x g f t E | # c ( a c 7 4.| c F | ' 3.",
"&.Q I Q G G 5.8 s y I 5.` *.j 6 q f q t t c F ( o...4.w.d.^ c ( F l c f.e.<.....^ D C a D C t x m q q P 0.=.f f x q s.c x } >.-.",
"] O.F h x u.S q a q 5 & K a w a p t f f t C ^ ....6.6.s.6.4 q 4 ; l , <.p.<.<...( F F C c D P D c m p } X.w ,.b g g T 6.b ( ( W ",
"A v W x } o.t h f _ F _ A z i a p g V V z c F ( | :.,.s.' ^ ' m F c l ` d.0...F F D B c z D F K F z D 9 A T 3.J C D t 8.E x Y } ",
"s C x a 9.A f f c  .| #.f m m m C C C c c C F ( %.<.s.<.c ( o.^ F F B c 0.e.:...F D D F F F ^ ^ ^ N a m D n u.A F J g / ,.f o.&.",
"g W V K =.q V h z p J r a D D Z F C x C C C C F ' ,.e.o...o.:.<.....<...<.0.0...C D F ....X.' ( ^ K K ( d D  .b C A _ c 8.D C S ",
"R C C ;.F C V x C p D r T ] / P F F F ^ ( F C F ^ o.X.,.p.s.0.s.d.0.e.p.y.:.$.F D F F ..' X.X.' ' _  .U b D w P E J Y C _ o.7 P ",
"t Y ( 6.h A g C z C f N U / T P ^ ^ ( ( ^ F F ( ..` ....:.X.,.o...<...:.<.$.F ..D F ..F { @.' ( @.#.' ] ' N A / ( / m K K 0.C  .",
"g E } _ F F C m b J g U J T _ ' ^ F F ^ C c D F ^ c ^ F F C ..^ C ..F F F F F F D F ....$.{ ~ U ' X.3.@.' #.#./ T ' ) ) ( ,.( z ",
"-.p 6.T D A F F D b J J T / } ) ( ^ ^ ( F F D x D l c ..F { ` ....F $.$.` F ` D F F ....@.` L ~ / [ %.:.X.>. .%.%. .X.' / o.} p ",
"4 q 6.x K m W A D D N T @.#.@.@.| ( ( ^ ^ ( ( ^ ' # 4 o.<.,.>.( ..$.....` B ` $.{ L ` ~ ~ ~ ~ L [ ' [ *.>.:.&.%.=.&.@. . .' 3.g ",
", V =.g J F P T T A T / @.>. .%.o.o.| ( F ....:.t # ^ :.$.o.:.:.` $...` $.` ` 0.$.{ :.$.~ L ~ ` P { ,.5.q.5.5.3.3.>.=.#.X._ -.m ",
", X.| C P ( P X.%.[ -.#.X.*.X.*.o.o.>.o.^ ..o.( & & <.o.$...X.:.$.....` $.B n $.3.:.:.{ ` ~ ` { ) $.>.>.1.q.r.q.8.4.2.=.#.) -.T ",
", -./ C K ) P  .#.#.X.@.{ @.>.>.:.o.<.>...( :.7 2 l e.:.:.X...$.<...$.$.` ` F ~ y.:.$.{ { ` ~ ` ' @.*.:.>.5.q.3.8.8.8.>.%.' &.' ",
"6 >./ T E _ ' [ &.X.' { X.%.1.$.=.:.,.:.=.:.^ & & F <.X.....X.X.{ { ` ` ~ ` ` n 3.3.:.$.{ ` ~ { ' { $.*.:.>.3.r.q.4.6.2.>.X.o.#.",
"t 2._  .o.#.>.#.X. .*.[ ' %.X.%.=.0.,.>.6.0.7 2 q :.:.{ ..:.3.o.{ 3.` ` { ~ L n { 3.:.:.$.` ~ { { ' ) { X.X.&.3.r.8.8.3.2.&.X.>.",
"s ;./ o.=.=.-.#.U U ..^ ) %.@.1.=.0.,.<.0...# & c =.` ^ ' ....` { ` ~ ` ` ~ B ~ L :.:.:.$.{ ' $.{ ~ ~ { @.' ) ) r.q.8.3.3.-.X.2.",
"x 4.( %.3.3.=.&. .X.U U @.>.3.>.,.,.>.0.0.t 4 & ..,...X.:.' { :.$.{ $.{ L ` { ~ l :.:.3.:.$.{ :.{ ' ) ` ) U ( { q.q.8.2.-.>.@.q.",
"z 4.} =.o.<.,.o.F ,.F X...<.,.>.0.,.<.p.F 4 & l >.U ^ ..[ ) [ ` ` ` L ~ ~ ~ L ~ c F :.:.:.:.$.` ..~ ` ` :.~ $.~ 3.:.3.5.1.*. .u.",
"b 4.( -.6.6.6.#.{ ( ....^ ..%.,.>.,.0.=.l 4 # D %.( ' n ~ { U $.L ~ ` ` ` ` L B ~ D 3.....` ` ` ~ $.` B $.~ $.` 1.:.:.5.3.1.@.r.",
"t 6.' &.=.| =.( C F l.e.C ( ( ^ ^ [ ,.c , 4 7 =...' X._ [ ` [ [ { { ` L B { ~ { ~ l ` X.` ..` ~ { ..~ B ~ i.3.` 5.5.3.1.1.:.X.5.",
"q 8.T _ =.>.,./ ^ c e.l.( <.%.4.*.1.o.q q ; c :...{ { X.' J [ @.$.` ~ ` ~ ` B ` ~ ~ n 3.:.:.3.:.3.3.5.:.` k.:.D ` %.1.1.5.:.@.&.",
"4 q.} %.-.4.| P { ^ e.d.X.<.:.0.4.r.N 5 7 ; :.0.X...%._ %.@.U 1.$.$.` ` ` { ~ ~ ~ / l ` ~ L L ~ ~ ..B L :.y.5.l / ' ' ) X._ %.=.",
"7 >._ T A Z f _ c F <.{ F F F C A E > 9 4 t <...' ' X.( @.@.) / $.$.` B ~ B ` B P B F n { X.[ *.$.:.:.:.:.$.:.` P ) @.%.>.) %./ ",
"6  .-.#.q.3.D #...^ D ( ,.X.o.,.r.P 6 r & F <.o.,.o.o.o.[ ' 1.` $.3.3.` ` { { ~ X.U X.B :.3.1.$.3.{ :.$.B { L ` { ' X.%.>._ 4.) ",
"> K 3.T 6.>.D ,.s.$.^ $.4.5.,.d.a.: 3 9 : X.X.{ / ^ :.{ [ U L ) { %.:.{ B { B ~ D n P p P { 3.@.$.{ ` ~ L B B $.1.[  . .@.J =.A ",
"8 w r.U #. .A  .5.T / / A X.( ^ n = z : n e.s.,.w.0.o.$.{ X.@.` { X.X.:.@.*.:.*.*.` @.1.L { 1.U ) ` / D U L m ~ u.J #.,.%./ 8.w ",
"s 6 1.] Q I b A / D q.j.y.^ a O : 9 6 3 U o.%...o.^ ` F / ^ U U ~ { ~ ^ [ { U ` U J ` D J L J %.X.[ n 5.i.p.) z #._ #.K J #.X.z ",
"Z 5 _ -.A N z i p a ' g.j.) , : > i 9 5 u.0.:.0.<.{ $.` X.X.{ $.' { X.X.@.1.*.1.%.%.) ) [ N $.i m @.L q.p.5.N /  .U %.#.D 8.F A ",
"E a g t.b v s 9 a 5 *.s.X.K 3 p 9 i : N o.o.F :.X.' ^ / ~ ` P / / F { ` P ` [ $.L ) [ P P N { n 5 B D ~ 1.q.b D n J ' P A 6.r z ",
"v i 6 4.U g j j U n &.D D z 9 4 p < & =.e.X.5.X.' o.' { ) ` ` U *.$.@.U [ { I [ [ ) ` [ @.) J y 9 a B m z _ J D T m T b _  .A T ",
"d s I ) 8.> y < m K z p X.P r > a 3 a x.w.p.w.o.' o.o.X.%.[ *.~ *.%.*.[ @.O.) ` ) ' a.q.*.*.n J > p ` 3.J g m _ m b f p s.c a ' ",
"y p ) s t.b p w < d _ 4.%._ D & 3 = F :.......:./ ' { ) ` ` { ` ) / @.' ) / [ ) K ` i i @.[ d 2 7 p P [ =.[ / / r z z ' -.C J F ",
"U ] M v K 2.< d 9 v 3.^ z J #.9 > > # O # & # & 2 ; & @ o = @ : = > * O 2 = * @ = o 5 > = * * 9 @ 0 ,.d U *. .3 a g q a.F J _ X.",
"G R ] E j 2.A * < > ] m m v U #.< t z a w t t l t 4 t 2 ; 7 2 7 7 r t 6 7 > > : = - i 5 - 5 > @ 7 :.l v 0 ) I y v 0 ] ;.s G E &.",
";.A O.R p J a.< w $ r 1.P P m U %.3 a i w ; 3 n B D z D ~ U B ` ' L m U J a U g n j 2 > p i = y 3.l U l I { @ 0 6 y i.j U [ _ R ",
" .G _ ! j j ] 1.* g 6 d 3.N X.z T =.9 p N l N l B X.m ` / L ~ { [ P ..d L 3.N 5 j J J g y 2 g 2.p B [ ) @.; y s 9 r.I g K W &.#.",
"a.G I E R G b 5.K $ s O D $.b  .n D #.z 6 t z 9 / 7 @ l B D n v B d B N ) A 2 0 0 M U 6 y G ` l U N l @.i 0 8 5 ) 1.j v _ _ ;.7.",
"H ! O.8.R g b M t.A 6 u 6 A i._ z / b ..U A i E ' m *.P D ~ l D J z L ~ U J n v n l 0 s ) ` G M B B :.i ; s ; J i.m S _ o.! 2.a.",
"j O.Z Q H G H f K t.w - e 6 f  .,._ J A D ' ) i a ~ a 4 m n ` m l { L l L { @.0 * p P *.I U J v j { 8 0 v > i i.s p w h I #.h.a.",
"M M K G #.] R s j J a.> 5 p 3 v 8.N C  .b n  .1.` a 3 X 4 i 0 m 4 2 7 2 l l 2 v B { J U Q J N @.@.y > i 2 y a.N f H -.;.-.V ! h.",
"8 M b Z O.O.Z G J s ! a.9 < w 6 - #.#.J ' z `  .U #.$.' J L U a n i 0 l ) ) @.@.) J ) U n n *.U > 2 9 > d a.M n #.&.6.;.&.-.#.Z ",
"I > G G I I H H K s k Z z.b > 1 p 5 I -.) G 5.M I A J I ~ @.[ :.{ :.y.$.L ) B J J ` U G #.1.j > w 6 = g k.s A ! _ 8.;.g u V )  .",
"O.j j j G H g.H R j _ A h a.W 1 w i 6 9 E -.5.K L J J N J v N n B L $.' J P J n U v #.*.J > y i w = Q g.a a j T ) W !   #.9.K W ",
"j O.1 s H s O.;.h  .H s u s 9.-.s * 5 w * : K #.*.$.E I ) J I d L l { { U N U ' ;.[ N 6 b p 5 1 < 2.2.h H j C _  ._ 8 q Z ) ! K ",
"G j ;.y j G j +.! Y ! H Y V f } 8.Q 6 . 5 5 @ 6 d _ *.3.[ [ -.r.L { q.3.@.#.@.P w $ < q > * > ` a._ f Z W a i -.W p w w 4 e E S ",
"y G M ! s y H I &.W H } ! H k } Q &.r.I 6 = 5 y 8 > ; 9 v J v d J b p a w 3 # : < 1 1 % - } 9.8.K ] m R  .R % e w q p #  .;.} E ",
"s j M ! ! y j I V H } ! +.S +.e A I _ 2.r.O.M - > * 9 5 5 > : 6 $ 4 , < 3 7 , w $ 1 e } a.&.W } Z w -.R #.W ;.e < h 1 w &.t.| V ",
"M y j j j ] s 8 V H R R H R 7.  s ] g J ) &.5.5.[ G s = = * , , 4 , : 4 4 < q Z } 6.a.#._ Y Z } k %  .K 6.) ! W ! S K S Z &._ h ",
"y y * s G Y O.Z u k S H R V R  .M 5.b ] A A I ` O.8.5.r.#._ E J E E ( ( ;.7.a.6.&.E } V h } s 7.g } } ;.;.J S W -.o.Y g w ;.K a "
};
