/* XPM */
static char *c44654b708d04090972453f08f3d53de[] = {
/* columns rows colors chars-per-pixel */
"64 64 232 2 ",
"   c #010101",
".  c #01020B",
"X  c #0B080B",
"o  c #181A08",
"O  c #010512",
"+  c #070916",
"@  c #120D12",
"#  c #161319",
"$  c #211F1E",
"%  c #222E1A",
"&  c #0B1527",
"*  c #0D1527",
"=  c #0C1A34",
"-  c #121E36",
";  c #2A1E24",
":  c #15222A",
">  c #132335",
",  c #13233A",
"<  c #19293C",
"1  c #262428",
"2  c #2B2B2C",
"3  c #322E2E",
"4  c #282C34",
"5  c #2E3333",
"6  c #323434",
"7  c #383837",
"8  c #3C3C3C",
"9  c #581715",
"0  c #46372E",
"q  c #443E37",
"w  c #4F4A2B",
"e  c #484237",
"r  c #172A46",
"t  c #1B314E",
"y  c #1C3557",
"u  c #293349",
"i  c #243C5B",
"p  c #243B64",
"a  c #4B3950",
"s  c #7B3749",
"d  c #443C62",
"f  c #1E4370",
"g  c #244164",
"h  c #24446B",
"j  c #29476B",
"k  c #254574",
"l  c #264B74",
"z  c #294C76",
"x  c #264B7A",
"c  c #294E7B",
"v  c #314D72",
"b  c #2A5077",
"n  c #2C517C",
"m  c #35557A",
"M  c #434243",
"N  c #49494B",
"B  c #554557",
"V  c #4C5256",
"C  c #545558",
"Z  c #5A5B5C",
"A  c #5A6957",
"S  c #70625C",
"D  c #5C5B61",
"F  c #44527C",
"G  c #705371",
"H  c #5B626A",
"J  c #666667",
"K  c #716C70",
"L  c #777879",
"P  c #B53930",
"I  c #D93A24",
"U  c #DD3D25",
"Y  c #C23A32",
"T  c #E33E27",
"R  c #A25E32",
"E  c #DE4126",
"W  c #D94727",
"Q  c #E24127",
"!  c #E34129",
"~  c #EA4228",
"^  c #DA6E2E",
"/  c #E16F2E",
"(  c #863A49",
")  c #866B69",
"_  c #867676",
"`  c #538536",
"'  c #5AA467",
"]  c #7DD863",
"[  c #DD8736",
"{  c #ECA83D",
"}  c #E7B73D",
"|  c #EDB33D",
" . c #EDB93E",
".. c #F2B63E",
"X. c #9CAC5E",
"o. c #84827E",
"O. c #B2A87E",
"+. c #CFA555",
"@. c #EEAC41",
"#. c #F0B842",
"$. c #8DF549",
"%. c #92F855",
"&. c #CECA50",
"*. c #DCD95C",
"=. c #EFD746",
"-. c #C9FA4D",
";. c #F6E64B",
":. c #FBF94F",
">. c #EAE858",
",. c #FDFC51",
"<. c #FEFB55",
"1. c #DCD565",
"2. c #E4DB69",
"3. c #284B83",
"4. c #2C5181",
"5. c #2F5488",
"6. c #385292",
"7. c #4C4391",
"8. c #547592",
"9. c #5354AF",
"0. c #567EA4",
"q. c #584ECF",
"w. c #6E5CE6",
"e. c #765BF3",
"r. c #7B5BF4",
"t. c #6466E7",
"y. c #6D6CEA",
"u. c #6477F5",
"i. c #826F81",
"p. c #DB5CB6",
"a. c #D867BC",
"s. c #805EFA",
"d. c #8368FF",
"f. c #DC6CC2",
"g. c #D976CA",
"h. c #E17BCD",
"j. c #748391",
"k. c #5585AB",
"l. c #748DA5",
"z. c #79D698",
"x. c #5993D5",
"c. c #5BA7D3",
"v. c #64B3DA",
"b. c #6490F4",
"n. c #59A8EC",
"m. c #5DAFF8",
"M. c #5FB3F6",
"N. c #5EB1F9",
"B. c #65BCE5",
"V. c #60B4F6",
"C. c #61B6F8",
"Z. c #64BCFC",
"A. c #6AC1C7",
"S. c #6CC6EA",
"D. c #838484",
"F. c #898A8B",
"G. c #918F8E",
"H. c #979798",
"J. c #AB9D89",
"K. c #AA9D93",
"L. c #9BA09E",
"P. c #ADA285",
"I. c #AEA48C",
"U. c #B3A689",
"Y. c #ABA496",
"T. c #B3A896",
"R. c #AB90AF",
"E. c #A3A4A4",
"W. c #ADADAD",
"Q. c #B3ADAA",
"!. c #AFB0AF",
"~. c #B1B1AE",
"^. c #AEAEB1",
"/. c #B1AFB1",
"(. c #AFB1B1",
"). c #B2B2B2",
"_. c #B8B8B8",
"`. c #BBBBBB",
"'. c #C7A99A",
"]. c #D3AEAC",
"[. c #C7B9B7",
"{. c #D7B5B3",
"}. c #EBAFB3",
"|. c #E7B5B6",
" X c #BCC0BC",
".X c #CCC1B2",
"XX c #F2D6AC",
"oX c #EFD0B7",
"OX c #F4D8B7",
"+X c #FCE5BC",
"@X c #FDE7BC",
"#X c #BDBDC3",
"$X c #DE8AD8",
"%X c #CE97D5",
"&X c #E68ADA",
"*X c #E399DC",
"=X c #D0A6D7",
"-X c #F0B9C1",
";X c #E9BED8",
":X c #E79CE8",
">X c #DDADE3",
",X c #E9A4EC",
"<X c #F3ADEF",
"1X c #ECBBE7",
"2X c #E9B6EE",
"3X c #F1BEE5",
"4X c #ECA5F0",
"5X c #ECABF4",
"6X c #ECB4F4",
"7X c #EDBBF5",
"8X c #EEB4FA",
"9X c #EEB9FC",
"0X c #F0B5FA",
"qX c #F2BAFD",
"wX c #BEC1C1",
"eX c #C4C4C5",
"rX c #C8C8C8",
"tX c #D3D3D3",
"yX c #EBC5CA",
"uX c #F8DBC8",
"iX c #F1C7D0",
"pX c #F2C6DD",
"aX c #FEDED4",
"sX c #FEDDDA",
"dX c #DFE0DA",
"fX c #FBE3C3",
"gX c #FBE4C9",
"hX c #FEE5D4",
"jX c #FFF6D2",
"kX c #F1C1E5",
"lX c #F9C5FF",
"zX c #F0F5F8",
/* pixels */
"c c n c c c c c c c c c c c c c c c n c c c c c c c c c c c n c n c c c c c c c c c c c c c c c n c c c c c c c c n c c c c c c ",
"c c c c c c c n c z c c c n c c c c c c c n c b c c c c c n c c c c c c c c c c c c c c c c c n b b c c n c n c c c c c c c b b ",
"c x x x c c c c c x x z c c c c c c c c c c c b c c c c c c c c n c c c b x b x c c c c n c n c c c c c c c n c c c n c b b l m ",
"c x x x c c c c c x x z 4.c c c c c c c c n c n c c c c c c c c c c c c x x b x c c c n c c c c c c c c c c c c c c c c b b g k.",
"c c x x c c n c c c x x c c c c c c n c c c c c c n n c c c c c c c x b x x b x c c c c c c c n c c c c n c c c c c c c x c x 5.",
"c c x z c c c c x x c x x z c c c n c c c c c n c c c c c c c c c c c x b x c b c c c c c c c c c c c c c c c c c b c c c c n b ",
"c c x z c c c c x x x x z c c c c c c c c n c c c c c c c c c c c c c c x x b b c c c c c n c c c n c n n c c c b c x x x b b b ",
"c c z c c c c c x x c x x c c c c n c c c c c c n c n c c c n c c c c c c x b c c c n c c c c c c c c c c c c c b b b n b x c b ",
"c c x z n c c c n c x n x c v x c c c c c c c c c c c c c c c x c b c x x c c c c c c n c c n c c c c c n c c n 4.f l.zXk.f b b ",
"c x x x c c c c c n 3.v x x x x c c c c c c c c n c n c c c x c x c c c x b c c c c c c c c c c c c c c c c c c 4.f l.zXl.f b b ",
"c c x x b c c c c c c c c c c n c n c c c n c c c c c n c c c x x c c x x x c c c c c n c c c c c c c c c c c c n b n n x x l c ",
"c c c x c c c c c c c c c c c c c c c c c c c c n c c c c c c z x c c b b x c c c c c b c c c c n c c n c c c c x c x x x c b c ",
"c c x x c c c n c c c c c z c n x c c c c c c c c c c c c c c c b b c b x x b b c c c c c b c c c b c c c c c c c c c c c c c x ",
"z z x z c c c 3.3.3.c 3.3.4.3.3.x x c c c z c x c c c x c c x x x x c b c x x x c b x c c x c 3.4.c c b b c c c c c c c c b b 5.",
"z z z z c l x x x x x 3.3.k c 3.3.3.c c n n m c n n c c 4.m n n 4.n n n n n 4.4.4.n 4.4.n 4.4.3.x x c x c c c n c c c c b b j j.",
"c c 3.z a ( ( ( ( s ( ( s ( ( ( s s 4 r , < , , , , , - - - - = , > > = , , , = = > , = , , , r f 3.c c c c c c c c c c b b l m ",
"d d d a P ! ~ ~ ~ ~ Q ~ ~ ~ Q T Q W 9                                                         . f c x x z c c c c c c c n c c k ",
"Y Y Y P Y ! E E Q Q E E I E Q ~ Y 9 o.U.P.I.J.P.P.J.P.J.P.P.O.O.P.P.P.P.P.O.U.P.P.U.U.P.U.K.I.I.5 r b c c c c c c n c n c c c c ",
"Q Q Q Q U W E ~ E E E W E E W P ( 2 '.jX+XhXsXhXhXaXaXaXaXaXaXaXaXaXaXaXaXaXaXaXsXsXaXsXuX@XfXjXA : g h c c c c c c n c c c c x ",
"E E E E ! U U U U U U U E T P @ B +XXXXXXXiX1X6X2X6X2X5X2X2X6X6X2X6X6X6X7X6X2X2X5X6X2X2XiXXXXXoXOXI.. r c 3.c c c c c c c c n z ",
"Q Q T Q W W W W W W W W W ~ R X q +XXXoXiXpX7X8X8X8X8X8X8X0X4X4X5X8X6X8X5X8X8X8X6X6X0X8X1XyXOXXX@XP.  r n c c c c b c c c c c c ",
"U I U I ^ @.@.@.{ { { { { { +.X q +XXXuXkX7X8X6X8X8X8X0X0XqX&Xp.*X9X9X5Xa.$X8X8X6X6X0X0X0X1XoXXX@XI.  < n c c c c x c c c c c c ",
"^ / / ^ [ | #.}  . . . .....+.X q +XoX-X6X0X,X,X8X8X8X0X5X0X:Xa.,X9X8X5Xf.$X6X8X8X8X6X0X8X7X;XoX+XI.  < n c c c c c c c x x n c ",
"#.#.#.#.#.| | | | | |  .| ..+.X 0 +XpX6XqX:Xa.g.8X8X0X0X0X0X8X5X8X8X6X8XqXqXlXqX6X0X8XqX9X8X8X1XuXI.  < n z n 4.c x b b x c b c ",
"| | | | | | | | { | | | | ..+.  e fX1X6X8X5Xh.&X6X8X8X8X8X8X8X8X8X8X9X=XG ) 7.%XqX6X5X,X,X8X8X2XuXY.  < z y r , t 3.c c c c c c ",
"| | | ..| { | |  .|  .| | | +.  e gX3X8X8X8X0X6X8X8X8X8X8X8X8X8X6X5XlXR.  .   R.lX5X&Xa.$X9X8X2XaXI.  < 5.:     & m z x c c c c ",
"| | | | =.=.;.;.;.;.;.=.=.;.1.X 0 fXkX6X8X8X0X0X8X8X8X8X8X8X8X8X8X7Xi.G 8.L _ J G >X<X:X5X8X8X2XuXY.  * = C o.L H - i n c c c c ",
"} } } #.=.:.:.,.:.:.,.:.<.<.2.X e fX3X6X8X8X0X8X8X8X8X8X8X0X8X8X8X7X; 7 yX#XrXN @ R.2X6X8X8X8X2XuXJ.  @ # o.rXeXG.  r n c c n c ",
":.;.:.;.<.<.,.,.,.,.,.,.:.:.2.X e fXkX6X8X8X5X0X8X8X8X8X8Xh.:X9X8XqX1 7 _.W.W.W.W.3 G lXqXqXqX3XaXI.  C _.E.!._.D.  r 4.c c c c ",
",.,.,.<.>.*.*.*.*.*.>.-.:.:.2.+ e uX1X8X8X8X8X0X8X8X8X9X4Xp.$X9X8X0X1 7 [.W./._.`.5 a 2X=X=X>X=XyXJ.X J eX).!._.D.  r 4.c c c c ",
",.,.:.<.X.o o o o o o R <.,.2.+ 0 gX1X6X8X8X8X0X9X8X8X8X8X:X5X8X0X9X1 q `.^././.(.).i.@ # # # # @ M W.E.(.(.!._.F.  r 4.c c c c ",
",.,.>.&.) 2 3 2 2 1   w &.&.X.X q gX1X6X8X9X0X8X4X5X8X8X8X9X0X8X8X7X1 8 `./.).).^..XG.1 6 6 6 6 1 Z  X(.(.(.W.`.D.  < c c c c l ",
"<.<.+.  A rX_.). XG.    . X X   e uX3X6X8X8X8X:Xa.:X9X8X8X8X8X8X0XlX3 3 [.^.).).)./.).)._.`._._._._.^.^.).W.W.`.D.  , n b c x x ",
"-.-.X.O $ A E.~.(.E.J J J #     e uX3X8X8X8X9X:Xf.,X9X8X0X8X5X:X%X=Xu C `.^.).)./.^.^.).(.^.(.(.^.).).).).~.W.`.G.1 u p b n z x ",
"$.%.' .     E.rX XeXrXtXrX%     e uX3X6X8X9X9X8X6X8X8X8X8X9X&Xf.a X H.`.^.(.).W.W._.`./.(.^.^.^.(.^./.^.W.).`.~.W. XJ O h n z c ",
"$.$.$.` ` ` A A Z Z Z D Z J D   e gX1X8X:X:X6X9X8X8X6X8X8X9X:X$Xa   H.#X(.).^.rXdXK K _.).).).).^.(.^..XdXD.J ~.W.`.J . k n x c ",
"$.$.%.%.%.%.% X         . ^.`.  q gXkX5Xf.a.6X8X9X8X8X8X8X8X5X9XB   H.).^.).W.zXzX6 6 `.~.).W.^._._.!.tXzXJ @ ~.!._.J . h n c c ",
"$.$.$.$.] ] ' ' ' ' ' V O 5 6   e uXkX5X&X$X6X8X8X8X8X8X8X8X8XlXB   H._.W.(._.K C @ 8 `.(.).).Y.8 Z `.D.Z 1 $ ~.!.`.J   h c x c ",
"%.%.%.%.z.v.v.S.B.B.S.k.+ + .   e uXkX0X8X8X8X8X8X8X8X8X6X8X8XlXB   H._.Q.Q.[.8     8 `.W.).).H.  6 eXZ     $ Q.Q._.J   h 4.3.c ",
"A.A.A.A.B.N.N.M.M.N.N.c.k.x.0.. 0 +X3X8X8X6X8X8X8X8X8Xh.$X5X8XlXB   H.[.{.{.{.K.D.G.H.~.).W._.~.F.H.).E.H.F.G.{.].|.S   k 4.3.c ",
"m.m.N.N.N.N.M.M.V.V.N.V.Z.Z.c.+ w +XpX6X8X0X6X8X6X8X8Xf.f.5X9X9XB   G.[.}.|.}.{._.W.E.).W.).E.L. X_.~.E.E.~.[.|.}.yXS . p 3.c 4.",
"N.m.M.M.M.M.Z.Z.C.C.C.V.N.Z.c.. w +XoXiX7X,Xh.$X8X8X8X:X:X8X5XlXB   H.{.}.}.-X[.(.1 q eX).eXM 1 _.).wXK   L [.|.}.iX)   z 3.3.c ",
"N.N.M.M.M.n.N.N.m.N.V.m.n.x.k.O q OXXXuXkX2Xa.g.8X8X8X8X9X8X5X9XG 3 F.T.|.{.{.[.).; 2 H.G.H.6 # H.G.H.C   L [.{.].'.) * j c z c ",
"M.M.M.M.b.u.u.u.u.u.u.b.b.u +   e jXXXOXuXpX,X4X8X8X8X8X8X8X8X9X0X1X; M rX'.Q.~._.2                       K `..Xo.X 1 n c c z c ",
"b.b.b.b.u.e.e.e.r.e.e.q.7.*     3 J.XXXXXXoXyX1XiX;X;X;X;X;XpX;X;XiXS J o.H.~.!.W.C 7 M 8 u M M 8 8 M M M F.^.D.J = y c x c c c ",
"r.r.e.e.e.r.r.r.r.r.d.7.            I.jX+XfXgX+X@X@X@X@X@X@X@X+XfXOXjXT.  Z rX_.`.eXeXrXrXrXeXeXrXrXrXrXeXeXE.  = 5.3.x c c c c ",
"r.r.r.r.r.r.r.r.r.w.9.F 7 8 6 8 1   L U.O.T.U.O.U.U.U.U.U.T.T.U.U.U.T._   N G.j.F.D.D.D.o.o.D.D.D.D.j.o.D.F.L - t 3.c x c c c 4.",
"r.r.r.r.r.s.s.s.s.9.. V =X).).rXH.                X                                     X                   + x 3.3.c c c c 3.c ",
"r.r.r.r.t.q.q.q.q.7.. N #X_.W.K V * X . N C C M   & > : - - > > > < , : O 4 C V C # . $ *   8 Z J N . < u r y z c 3.c c c 3.x c ",
"w.e.e.y.9.x 3.3.3.p   N _.(.H.. & j : O L._.wXF.  t m z n x z m n b m j O H eX_.(.1 & v u   D.wX XD.  y 5.4.5.c x 3.c c c c x z ",
"6.6.6.6.3.c c c 3.p . @ 4 2 5 t i b g y 4 2 2 1 . t m c c z x x c c c l p u 2 3 2   = m j i u 5 4 $   t c c c c x c c c z 3.c c ",
"3.x c c x c c x p p + O   . + g l l b f &     . O y 4.l c c c 3.c c x c n r . . . O = l n m :   O . O t 4.c c c x c x x c x x x ",
"3.c b n c c c c b k h g g h g l x l l l h f f f i h c z c c 3.c c 4.x c b k j h h g g c b x f g g p p z c c c c c c c c c c x x ",
"c x z c c x c 3.c c c c c c c c x x x x b b b c n z c c c c c c c c c c c n n n n n c n b n n n n 4.4.c c c c c c c z c c c c x ",
"c c c c c 3.x x c c x z x x x c x c x x x b c c c c c c c c c c c c c c c c c c c c c c c c c c c c c c n c n c c c c c c c c c ",
"c c c c c c c c c c c c c x c c c c b x x b c c c c c c c c c c c c c c c c c c c c c c c c c c z c c c c c c c c c c c c c c c ",
"c c c c c c c c x c 3.c c x c 3.c c c c c c c c c c c c n c n c c n c c c c c c c c n c c c c c c c c c c c c c c 4.c c c c c n ",
"n c c c c x c c c c c c c c x c c c c c c c c c c c c c c c c c c c c c c c c n c c b b c c c c c c c n c c c c c c c c n c c c ",
"c c c c c x c c c c x c c c c c c c c c c c c b c c n c c c n c c c c c c c c c c n c c c c c c c n c c n c c n c c c c c n c n ",
"n c c c c c c c c c c c c c c c c c c c c c c c n c c c c c c c n c c n n c c c c c n c c c c c c c c c c c c c c c c c c c c c ",
"c c n c c c c c c c c c c c c c c c c c c c c c c n c c c c n c c c c c c n c c c c c c c c c c c c c c c n c c c c c c c c c c ",
"c c c c c c c c c c c n n c c n n c b c c n c c c c c c c c c c c c c c c c n c c c c c c c c c c c c c c c c c n c n c n c c c ",
"c c c c c x c c c c c c c c c c c c c n c c c c c c n c c c c c n c c c c c c c c c c c c c b b c l c c x c c n c c c c c c c c ",
"c c c c l c n c n c c c c c c n n c c c c c c c c n c c c c c c c c c c c n c c c c c c x b x x c c b x c c c x n c c n c c c c "
};
